<mxfile host="app.diagrams.net" modified="2021-04-12T12:32:14.270Z" agent="5.0 (Windows NT 10.0; Win64; x64) AppleWebKit/537.36 (KHTML, like Gecko) Chrome/88.0.4324.190 Safari/537.36" etag="GbFH-XdnCBaO3pUj3Syn" version="14.5.10" type="github" pages="3">
  <diagram id="6kjMb8roktwZyk6-E--L" name="Arduino1">
    <mxGraphModel dx="1038" dy="548" grid="1" gridSize="10" guides="1" tooltips="1" connect="1" arrows="1" fold="1" page="1" pageScale="1" pageWidth="827" pageHeight="1169" math="0" shadow="0">
      <root>
        <mxCell id="0" />
        <mxCell id="1" parent="0" />
        <mxCell id="A8p26EcrR63aRMMNaDDZ-66" value="" style="rounded=0;whiteSpace=wrap;html=1;dashed=1;backgroundOutline=0;" parent="1" vertex="1">
          <mxGeometry y="510" width="600" height="100" as="geometry" />
        </mxCell>
        <mxCell id="A8p26EcrR63aRMMNaDDZ-1" value="&lt;font style=&quot;font-size: 18px&quot;&gt;Start&lt;/font&gt;" style="rounded=1;whiteSpace=wrap;html=1;" parent="1" vertex="1">
          <mxGeometry x="340" y="80" width="80" height="30" as="geometry" />
        </mxCell>
        <mxCell id="A8p26EcrR63aRMMNaDDZ-2" value="" style="endArrow=classic;html=1;exitX=0.5;exitY=1;exitDx=0;exitDy=0;" parent="1" source="A8p26EcrR63aRMMNaDDZ-1" edge="1">
          <mxGeometry width="50" height="50" relative="1" as="geometry">
            <mxPoint x="379.5" y="120" as="sourcePoint" />
            <mxPoint x="380" y="150" as="targetPoint" />
          </mxGeometry>
        </mxCell>
        <mxCell id="A8p26EcrR63aRMMNaDDZ-3" value="&lt;font style=&quot;font-size: 18px&quot;&gt;Initialization&lt;/font&gt;" style="rounded=0;whiteSpace=wrap;html=1;" parent="1" vertex="1">
          <mxGeometry x="325" y="150" width="110" height="40" as="geometry" />
        </mxCell>
        <mxCell id="A8p26EcrR63aRMMNaDDZ-6" value="" style="endArrow=classic;html=1;exitX=0.5;exitY=1;exitDx=0;exitDy=0;" parent="1" edge="1">
          <mxGeometry width="50" height="50" relative="1" as="geometry">
            <mxPoint x="379.5" y="190" as="sourcePoint" />
            <mxPoint x="379.5" y="230" as="targetPoint" />
          </mxGeometry>
        </mxCell>
        <mxCell id="A8p26EcrR63aRMMNaDDZ-8" value="&lt;span style=&quot;font-size: 18px&quot;&gt;Serial port check&lt;/span&gt;" style="rhombus;whiteSpace=wrap;html=1;" parent="1" vertex="1">
          <mxGeometry x="290" y="230" width="180" height="80" as="geometry" />
        </mxCell>
        <mxCell id="A8p26EcrR63aRMMNaDDZ-13" value="" style="endArrow=classic;html=1;exitX=0.5;exitY=1;exitDx=0;exitDy=0;" parent="1" edge="1">
          <mxGeometry width="50" height="50" relative="1" as="geometry">
            <mxPoint x="379.5" y="310" as="sourcePoint" />
            <mxPoint x="379.5" y="350" as="targetPoint" />
          </mxGeometry>
        </mxCell>
        <mxCell id="A8p26EcrR63aRMMNaDDZ-15" value="&lt;font style=&quot;font-size: 18px&quot;&gt;T&lt;/font&gt;" style="text;html=1;strokeColor=none;fillColor=none;align=center;verticalAlign=middle;whiteSpace=wrap;rounded=0;" parent="1" vertex="1">
          <mxGeometry x="340" y="320" width="40" height="20" as="geometry" />
        </mxCell>
        <mxCell id="A8p26EcrR63aRMMNaDDZ-17" value="" style="endArrow=none;html=1;" parent="1" edge="1">
          <mxGeometry width="50" height="50" relative="1" as="geometry">
            <mxPoint x="470" y="270" as="sourcePoint" />
            <mxPoint x="530" y="220" as="targetPoint" />
            <Array as="points">
              <mxPoint x="560" y="270" />
              <mxPoint x="560" y="220" />
            </Array>
          </mxGeometry>
        </mxCell>
        <mxCell id="A8p26EcrR63aRMMNaDDZ-18" value="" style="endArrow=classic;html=1;" parent="1" edge="1">
          <mxGeometry width="50" height="50" relative="1" as="geometry">
            <mxPoint x="540" y="220" as="sourcePoint" />
            <mxPoint x="390" y="220" as="targetPoint" />
          </mxGeometry>
        </mxCell>
        <mxCell id="A8p26EcrR63aRMMNaDDZ-20" value="&lt;font style=&quot;font-size: 18px&quot;&gt;F&lt;/font&gt;" style="text;html=1;strokeColor=none;fillColor=none;align=center;verticalAlign=middle;whiteSpace=wrap;rounded=0;" parent="1" vertex="1">
          <mxGeometry x="480" y="240" width="40" height="20" as="geometry" />
        </mxCell>
        <mxCell id="A8p26EcrR63aRMMNaDDZ-21" value="&lt;font style=&quot;font-size: 18px&quot;&gt;Detect string keys&lt;/font&gt;" style="rounded=0;whiteSpace=wrap;html=1;" parent="1" vertex="1">
          <mxGeometry x="300" y="350" width="170" height="40" as="geometry" />
        </mxCell>
        <mxCell id="A8p26EcrR63aRMMNaDDZ-24" value="&lt;font style=&quot;font-size: 18px&quot;&gt;Gear Control Module&lt;/font&gt;" style="rounded=0;whiteSpace=wrap;html=1;" parent="1" vertex="1">
          <mxGeometry x="400" y="450" width="140" height="50" as="geometry" />
        </mxCell>
        <mxCell id="A8p26EcrR63aRMMNaDDZ-25" value="" style="endArrow=none;html=1;" parent="1" edge="1">
          <mxGeometry width="50" height="50" relative="1" as="geometry">
            <mxPoint x="390" y="410" as="sourcePoint" />
            <mxPoint x="80" y="450" as="targetPoint" />
            <Array as="points">
              <mxPoint x="120" y="410" />
              <mxPoint x="80" y="410" />
              <mxPoint x="80" y="430" />
            </Array>
          </mxGeometry>
        </mxCell>
        <mxCell id="A8p26EcrR63aRMMNaDDZ-26" value="" style="endArrow=classic;html=1;" parent="1" edge="1">
          <mxGeometry width="50" height="50" relative="1" as="geometry">
            <mxPoint x="79.5" y="430" as="sourcePoint" />
            <mxPoint x="79.5" y="450" as="targetPoint" />
          </mxGeometry>
        </mxCell>
        <mxCell id="A8p26EcrR63aRMMNaDDZ-27" value="&lt;span style=&quot;font-size: 18px&quot;&gt;Motors Control Module&lt;/span&gt;" style="rounded=0;whiteSpace=wrap;html=1;" parent="1" vertex="1">
          <mxGeometry x="200" y="450" width="140" height="50" as="geometry" />
        </mxCell>
        <mxCell id="A8p26EcrR63aRMMNaDDZ-28" value="" style="endArrow=classic;html=1;entryX=0.5;entryY=0;entryDx=0;entryDy=0;" parent="1" edge="1">
          <mxGeometry width="50" height="50" relative="1" as="geometry">
            <mxPoint x="269.5" y="410" as="sourcePoint" />
            <mxPoint x="269.5" y="450" as="targetPoint" />
          </mxGeometry>
        </mxCell>
        <mxCell id="A8p26EcrR63aRMMNaDDZ-29" value="&lt;font style=&quot;font-size: 18px&quot;&gt;Servo Control Module&lt;/font&gt;" style="rounded=0;whiteSpace=wrap;html=1;" parent="1" vertex="1">
          <mxGeometry x="10" y="450" width="140" height="50" as="geometry" />
        </mxCell>
        <mxCell id="A8p26EcrR63aRMMNaDDZ-30" value="" style="endArrow=none;html=1;" parent="1" edge="1">
          <mxGeometry width="50" height="50" relative="1" as="geometry">
            <mxPoint x="370" y="410" as="sourcePoint" />
            <mxPoint x="660" y="450" as="targetPoint" />
            <Array as="points">
              <mxPoint x="660" y="410" />
              <mxPoint x="660" y="430" />
            </Array>
          </mxGeometry>
        </mxCell>
        <mxCell id="A8p26EcrR63aRMMNaDDZ-31" value="" style="endArrow=classic;html=1;entryX=0.5;entryY=0;entryDx=0;entryDy=0;" parent="1" edge="1">
          <mxGeometry width="50" height="50" relative="1" as="geometry">
            <mxPoint x="659.5" y="420" as="sourcePoint" />
            <mxPoint x="659.5" y="450" as="targetPoint" />
          </mxGeometry>
        </mxCell>
        <mxCell id="A8p26EcrR63aRMMNaDDZ-32" value="&lt;font style=&quot;font-size: 18px&quot;&gt;Sensors Control Module&lt;/font&gt;" style="rounded=0;whiteSpace=wrap;html=1;" parent="1" vertex="1">
          <mxGeometry x="590" y="450" width="140" height="50" as="geometry" />
        </mxCell>
        <mxCell id="A8p26EcrR63aRMMNaDDZ-33" value="" style="endArrow=none;html=1;" parent="1" edge="1">
          <mxGeometry width="50" height="50" relative="1" as="geometry">
            <mxPoint x="385" y="410" as="sourcePoint" />
            <mxPoint x="384.5" y="390" as="targetPoint" />
          </mxGeometry>
        </mxCell>
        <mxCell id="A8p26EcrR63aRMMNaDDZ-34" value="" style="endArrow=classic;html=1;entryX=0.5;entryY=0;entryDx=0;entryDy=0;" parent="1" edge="1">
          <mxGeometry width="50" height="50" relative="1" as="geometry">
            <mxPoint x="469.5" y="410" as="sourcePoint" />
            <mxPoint x="469.5" y="450" as="targetPoint" />
          </mxGeometry>
        </mxCell>
        <mxCell id="A8p26EcrR63aRMMNaDDZ-37" value="" style="endArrow=none;html=1;" parent="1" edge="1">
          <mxGeometry width="50" height="50" relative="1" as="geometry">
            <mxPoint x="270" y="520" as="sourcePoint" />
            <mxPoint x="60" y="550" as="targetPoint" />
            <Array as="points">
              <mxPoint x="100" y="520" />
              <mxPoint x="60" y="520" />
              <mxPoint x="60" y="540" />
            </Array>
          </mxGeometry>
        </mxCell>
        <mxCell id="A8p26EcrR63aRMMNaDDZ-39" value="" style="endArrow=none;html=1;" parent="1" edge="1">
          <mxGeometry width="50" height="50" relative="1" as="geometry">
            <mxPoint x="270" y="520" as="sourcePoint" />
            <mxPoint x="269.5" y="500" as="targetPoint" />
          </mxGeometry>
        </mxCell>
        <mxCell id="A8p26EcrR63aRMMNaDDZ-40" value="&lt;span style=&quot;font-size: 18px&quot;&gt;Stop module&lt;/span&gt;" style="rounded=0;whiteSpace=wrap;html=1;" parent="1" vertex="1">
          <mxGeometry y="550" width="110" height="40" as="geometry" />
        </mxCell>
        <mxCell id="A8p26EcrR63aRMMNaDDZ-41" value="" style="endArrow=classic;html=1;entryX=0.5;entryY=0;entryDx=0;entryDy=0;" parent="1" edge="1">
          <mxGeometry width="50" height="50" relative="1" as="geometry">
            <mxPoint x="60.5" y="530" as="sourcePoint" />
            <mxPoint x="60" y="550" as="targetPoint" />
          </mxGeometry>
        </mxCell>
        <mxCell id="A8p26EcrR63aRMMNaDDZ-42" value="&lt;span style=&quot;font-size: 18px&quot;&gt;Advance module&lt;/span&gt;" style="rounded=0;whiteSpace=wrap;html=1;" parent="1" vertex="1">
          <mxGeometry x="120" y="550" width="110" height="40" as="geometry" />
        </mxCell>
        <mxCell id="A8p26EcrR63aRMMNaDDZ-43" value="&lt;span style=&quot;font-size: 18px&quot;&gt;Retreat module&lt;/span&gt;" style="rounded=0;whiteSpace=wrap;html=1;" parent="1" vertex="1">
          <mxGeometry x="240" y="550" width="110" height="40" as="geometry" />
        </mxCell>
        <mxCell id="A8p26EcrR63aRMMNaDDZ-45" value="&lt;span style=&quot;font-size: 18px&quot;&gt;Turn left module&lt;/span&gt;" style="rounded=0;whiteSpace=wrap;html=1;" parent="1" vertex="1">
          <mxGeometry x="360" y="550" width="110" height="40" as="geometry" />
        </mxCell>
        <mxCell id="A8p26EcrR63aRMMNaDDZ-46" value="&lt;span style=&quot;font-size: 18px&quot;&gt;Turn right module&lt;/span&gt;" style="rounded=0;whiteSpace=wrap;html=1;" parent="1" vertex="1">
          <mxGeometry x="480" y="550" width="110" height="40" as="geometry" />
        </mxCell>
        <mxCell id="A8p26EcrR63aRMMNaDDZ-47" value="" style="endArrow=classic;html=1;entryX=0.5;entryY=0;entryDx=0;entryDy=0;" parent="1" edge="1">
          <mxGeometry width="50" height="50" relative="1" as="geometry">
            <mxPoint x="175" y="520" as="sourcePoint" />
            <mxPoint x="174.5" y="550" as="targetPoint" />
          </mxGeometry>
        </mxCell>
        <mxCell id="A8p26EcrR63aRMMNaDDZ-49" value="" style="endArrow=none;html=1;" parent="1" edge="1">
          <mxGeometry width="50" height="50" relative="1" as="geometry">
            <mxPoint x="250" y="520" as="sourcePoint" />
            <mxPoint x="540" y="550" as="targetPoint" />
            <Array as="points">
              <mxPoint x="540" y="520" />
              <mxPoint x="540" y="540" />
            </Array>
          </mxGeometry>
        </mxCell>
        <mxCell id="A8p26EcrR63aRMMNaDDZ-51" value="" style="endArrow=classic;html=1;entryX=0.5;entryY=0;entryDx=0;entryDy=0;" parent="1" edge="1">
          <mxGeometry width="50" height="50" relative="1" as="geometry">
            <mxPoint x="540" y="530" as="sourcePoint" />
            <mxPoint x="540" y="550" as="targetPoint" />
          </mxGeometry>
        </mxCell>
        <mxCell id="A8p26EcrR63aRMMNaDDZ-52" value="" style="endArrow=classic;html=1;entryX=0.5;entryY=0;entryDx=0;entryDy=0;" parent="1" edge="1">
          <mxGeometry width="50" height="50" relative="1" as="geometry">
            <mxPoint x="295" y="520" as="sourcePoint" />
            <mxPoint x="294.5" y="550" as="targetPoint" />
          </mxGeometry>
        </mxCell>
        <mxCell id="A8p26EcrR63aRMMNaDDZ-54" value="" style="endArrow=classic;html=1;entryX=0.5;entryY=0;entryDx=0;entryDy=0;" parent="1" edge="1">
          <mxGeometry width="50" height="50" relative="1" as="geometry">
            <mxPoint x="415" y="520" as="sourcePoint" />
            <mxPoint x="414.5" y="550" as="targetPoint" />
          </mxGeometry>
        </mxCell>
        <mxCell id="A8p26EcrR63aRMMNaDDZ-55" value="&lt;span style=&quot;font-size: 18px&quot;&gt;Temperature Sensor Module&lt;/span&gt;" style="rounded=0;whiteSpace=wrap;html=1;" parent="1" vertex="1">
          <mxGeometry x="690" y="537.5" width="130" height="65" as="geometry" />
        </mxCell>
        <mxCell id="A8p26EcrR63aRMMNaDDZ-56" value="" style="endArrow=none;html=1;" parent="1" edge="1">
          <mxGeometry width="50" height="50" relative="1" as="geometry">
            <mxPoint x="660" y="500" as="sourcePoint" />
            <mxPoint x="680" y="570" as="targetPoint" />
            <Array as="points">
              <mxPoint x="660" y="770" />
              <mxPoint x="660" y="630" />
              <mxPoint x="660" y="570" />
              <mxPoint x="690" y="570" />
              <mxPoint x="670" y="570" />
            </Array>
          </mxGeometry>
        </mxCell>
        <mxCell id="A8p26EcrR63aRMMNaDDZ-59" value="" style="endArrow=classic;html=1;" parent="1" edge="1">
          <mxGeometry width="50" height="50" relative="1" as="geometry">
            <mxPoint x="670.5" y="569.5" as="sourcePoint" />
            <mxPoint x="690" y="569.5" as="targetPoint" />
          </mxGeometry>
        </mxCell>
        <mxCell id="A8p26EcrR63aRMMNaDDZ-60" value="" style="endArrow=classic;html=1;" parent="1" edge="1">
          <mxGeometry width="50" height="50" relative="1" as="geometry">
            <mxPoint x="660" y="669.5" as="sourcePoint" />
            <mxPoint x="690" y="669.5" as="targetPoint" />
          </mxGeometry>
        </mxCell>
        <mxCell id="A8p26EcrR63aRMMNaDDZ-61" value="&lt;span style=&quot;font-size: 18px&quot;&gt;Ultrasonic Sensor Module&lt;/span&gt;" style="rounded=0;whiteSpace=wrap;html=1;" parent="1" vertex="1">
          <mxGeometry x="690" y="640" width="130" height="60" as="geometry" />
        </mxCell>
        <mxCell id="A8p26EcrR63aRMMNaDDZ-62" value="&lt;span style=&quot;font-size: 18px&quot;&gt;Air Pressure Sensor Module&lt;/span&gt;" style="rounded=0;whiteSpace=wrap;html=1;" parent="1" vertex="1">
          <mxGeometry x="690" y="730" width="130" height="65" as="geometry" />
        </mxCell>
        <mxCell id="A8p26EcrR63aRMMNaDDZ-63" value="" style="endArrow=classic;html=1;" parent="1" edge="1">
          <mxGeometry width="50" height="50" relative="1" as="geometry">
            <mxPoint x="660" y="762" as="sourcePoint" />
            <mxPoint x="690" y="762" as="targetPoint" />
          </mxGeometry>
        </mxCell>
        <mxCell id="A8p26EcrR63aRMMNaDDZ-64" value="" style="endArrow=classic;html=1;" parent="1" edge="1">
          <mxGeometry width="50" height="50" relative="1" as="geometry">
            <mxPoint x="660" y="720" as="sourcePoint" />
            <mxPoint x="380" y="720" as="targetPoint" />
          </mxGeometry>
        </mxCell>
        <mxCell id="A8p26EcrR63aRMMNaDDZ-65" value="&lt;span style=&quot;font-size: 18px&quot;&gt;RGB LED Module&lt;/span&gt;" style="rounded=0;whiteSpace=wrap;html=1;" parent="1" vertex="1">
          <mxGeometry x="260" y="700" width="120" height="50" as="geometry" />
        </mxCell>
        <mxCell id="A8p26EcrR63aRMMNaDDZ-68" value="" style="shape=flexArrow;endArrow=classic;startArrow=classic;html=1;exitX=0.5;exitY=0;exitDx=0;exitDy=0;" parent="1" source="A8p26EcrR63aRMMNaDDZ-65" edge="1">
          <mxGeometry width="50" height="50" relative="1" as="geometry">
            <mxPoint x="319.5" y="680" as="sourcePoint" />
            <mxPoint x="320" y="612" as="targetPoint" />
          </mxGeometry>
        </mxCell>
      </root>
    </mxGraphModel>
  </diagram>
  <diagram id="t-ZkdWGAtaLmr9DcvYFg" name="Arduino2">
    <mxGraphModel dx="1038" dy="548" grid="1" gridSize="10" guides="1" tooltips="1" connect="1" arrows="1" fold="1" page="1" pageScale="1" pageWidth="827" pageHeight="1169" math="0" shadow="0">
      <root>
        <mxCell id="3Fs6DEe1GGpeCKBilyt_-0" />
        <mxCell id="3Fs6DEe1GGpeCKBilyt_-1" parent="3Fs6DEe1GGpeCKBilyt_-0" />
        <mxCell id="ANSA-z6g4CT9nZwf1jDd-65" value="" style="rounded=0;whiteSpace=wrap;html=1;dashed=1;" parent="3Fs6DEe1GGpeCKBilyt_-1" vertex="1">
          <mxGeometry x="30" y="60" width="780" height="860" as="geometry" />
        </mxCell>
        <mxCell id="ANSA-z6g4CT9nZwf1jDd-0" value="&lt;font style=&quot;font-size: 18px&quot;&gt;Start&lt;/font&gt;" style="rounded=1;whiteSpace=wrap;html=1;" parent="3Fs6DEe1GGpeCKBilyt_-1" vertex="1">
          <mxGeometry x="562.5" y="90" width="80" height="30" as="geometry" />
        </mxCell>
        <mxCell id="ANSA-z6g4CT9nZwf1jDd-1" value="" style="endArrow=classic;html=1;exitX=0.5;exitY=1;exitDx=0;exitDy=0;" parent="3Fs6DEe1GGpeCKBilyt_-1" source="ANSA-z6g4CT9nZwf1jDd-0" edge="1">
          <mxGeometry width="50" height="50" relative="1" as="geometry">
            <mxPoint x="602" y="130" as="sourcePoint" />
            <mxPoint x="602.5" y="160" as="targetPoint" />
          </mxGeometry>
        </mxCell>
        <mxCell id="ANSA-z6g4CT9nZwf1jDd-2" value="&lt;font style=&quot;font-size: 18px&quot;&gt;Initialize camera&lt;/font&gt;" style="rounded=0;whiteSpace=wrap;html=1;" parent="3Fs6DEe1GGpeCKBilyt_-1" vertex="1">
          <mxGeometry x="530" y="240" width="145" height="40" as="geometry" />
        </mxCell>
        <mxCell id="ANSA-z6g4CT9nZwf1jDd-3" value="" style="endArrow=classic;html=1;exitX=0.5;exitY=1;exitDx=0;exitDy=0;" parent="3Fs6DEe1GGpeCKBilyt_-1" edge="1">
          <mxGeometry width="50" height="50" relative="1" as="geometry">
            <mxPoint x="602" y="200" as="sourcePoint" />
            <mxPoint x="602" y="240" as="targetPoint" />
          </mxGeometry>
        </mxCell>
        <mxCell id="ANSA-z6g4CT9nZwf1jDd-5" value="" style="endArrow=classic;html=1;exitX=0.5;exitY=1;exitDx=0;exitDy=0;" parent="3Fs6DEe1GGpeCKBilyt_-1" edge="1">
          <mxGeometry width="50" height="50" relative="1" as="geometry">
            <mxPoint x="602.5" y="280" as="sourcePoint" />
            <mxPoint x="602.5" y="320" as="targetPoint" />
          </mxGeometry>
        </mxCell>
        <mxCell id="ANSA-z6g4CT9nZwf1jDd-6" value="&lt;font style=&quot;font-size: 18px&quot;&gt;T&lt;/font&gt;" style="text;html=1;strokeColor=none;fillColor=none;align=center;verticalAlign=middle;whiteSpace=wrap;rounded=0;" parent="3Fs6DEe1GGpeCKBilyt_-1" vertex="1">
          <mxGeometry x="562.5" y="480" width="40" height="20" as="geometry" />
        </mxCell>
        <mxCell id="ANSA-z6g4CT9nZwf1jDd-58" style="edgeStyle=orthogonalEdgeStyle;rounded=0;orthogonalLoop=1;jettySize=auto;html=1;entryX=0.5;entryY=0;entryDx=0;entryDy=0;" parent="3Fs6DEe1GGpeCKBilyt_-1" source="ANSA-z6g4CT9nZwf1jDd-10" target="ANSA-z6g4CT9nZwf1jDd-42" edge="1">
          <mxGeometry relative="1" as="geometry">
            <mxPoint x="607.5" y="710" as="targetPoint" />
          </mxGeometry>
        </mxCell>
        <mxCell id="ANSA-z6g4CT9nZwf1jDd-10" value="&lt;font style=&quot;font-size: 18px&quot;&gt;Start camera service function&lt;/font&gt;" style="rounded=0;whiteSpace=wrap;html=1;" parent="3Fs6DEe1GGpeCKBilyt_-1" vertex="1">
          <mxGeometry x="537.5" y="629.38" width="140" height="48.75" as="geometry" />
        </mxCell>
        <mxCell id="ANSA-z6g4CT9nZwf1jDd-11" value="&lt;font style=&quot;font-size: 18px&quot;&gt;Select framsize&lt;/font&gt;" style="rounded=0;whiteSpace=wrap;html=1;" parent="3Fs6DEe1GGpeCKBilyt_-1" vertex="1">
          <mxGeometry x="532.5" y="320" width="140" height="40" as="geometry" />
        </mxCell>
        <mxCell id="ANSA-z6g4CT9nZwf1jDd-25" style="edgeStyle=orthogonalEdgeStyle;rounded=0;orthogonalLoop=1;jettySize=auto;html=1;" parent="3Fs6DEe1GGpeCKBilyt_-1" source="ANSA-z6g4CT9nZwf1jDd-12" edge="1">
          <mxGeometry relative="1" as="geometry">
            <mxPoint x="432.5" y="435" as="targetPoint" />
          </mxGeometry>
        </mxCell>
        <mxCell id="ANSA-z6g4CT9nZwf1jDd-12" value="&lt;font style=&quot;font-size: 18px&quot;&gt;Support PSRAM?&lt;/font&gt;" style="rhombus;whiteSpace=wrap;html=1;" parent="3Fs6DEe1GGpeCKBilyt_-1" vertex="1">
          <mxGeometry x="495" y="400" width="217.5" height="70" as="geometry" />
        </mxCell>
        <mxCell id="ANSA-z6g4CT9nZwf1jDd-56" value="" style="edgeStyle=orthogonalEdgeStyle;rounded=0;orthogonalLoop=1;jettySize=auto;html=1;" parent="3Fs6DEe1GGpeCKBilyt_-1" source="ANSA-z6g4CT9nZwf1jDd-14" target="ANSA-z6g4CT9nZwf1jDd-17" edge="1">
          <mxGeometry relative="1" as="geometry" />
        </mxCell>
        <mxCell id="ANSA-z6g4CT9nZwf1jDd-14" value="&lt;font style=&quot;font-size: 16px&quot;&gt;Resolution (1600 x 1200)&lt;/font&gt;" style="rounded=0;whiteSpace=wrap;html=1;" parent="3Fs6DEe1GGpeCKBilyt_-1" vertex="1">
          <mxGeometry x="537.5" y="520" width="130" height="45" as="geometry" />
        </mxCell>
        <mxCell id="ANSA-z6g4CT9nZwf1jDd-28" style="edgeStyle=orthogonalEdgeStyle;rounded=0;orthogonalLoop=1;jettySize=auto;html=1;entryX=0.5;entryY=0;entryDx=0;entryDy=0;" parent="3Fs6DEe1GGpeCKBilyt_-1" target="ANSA-z6g4CT9nZwf1jDd-17" edge="1">
          <mxGeometry relative="1" as="geometry">
            <mxPoint x="367.5" y="460" as="sourcePoint" />
          </mxGeometry>
        </mxCell>
        <mxCell id="ANSA-z6g4CT9nZwf1jDd-15" value="&lt;font style=&quot;font-size: 16px&quot;&gt;Resolution (800 x 600)&lt;/font&gt;" style="rounded=0;whiteSpace=wrap;html=1;" parent="3Fs6DEe1GGpeCKBilyt_-1" vertex="1">
          <mxGeometry x="302.5" y="415" width="130" height="45" as="geometry" />
        </mxCell>
        <mxCell id="ANSA-z6g4CT9nZwf1jDd-16" value="&lt;font style=&quot;font-size: 18px&quot;&gt;Store configuration parameters&lt;/font&gt;" style="rounded=0;whiteSpace=wrap;html=1;" parent="3Fs6DEe1GGpeCKBilyt_-1" vertex="1">
          <mxGeometry x="467.5" y="160" width="270" height="40" as="geometry" />
        </mxCell>
        <mxCell id="ANSA-z6g4CT9nZwf1jDd-55" value="" style="edgeStyle=orthogonalEdgeStyle;rounded=0;orthogonalLoop=1;jettySize=auto;html=1;" parent="3Fs6DEe1GGpeCKBilyt_-1" source="ANSA-z6g4CT9nZwf1jDd-17" target="ANSA-z6g4CT9nZwf1jDd-20" edge="1">
          <mxGeometry relative="1" as="geometry" />
        </mxCell>
        <mxCell id="ANSA-z6g4CT9nZwf1jDd-17" value="&lt;font style=&quot;font-size: 18px&quot;&gt;WIFI connected?&lt;/font&gt;" style="rhombus;whiteSpace=wrap;html=1;" parent="3Fs6DEe1GGpeCKBilyt_-1" vertex="1">
          <mxGeometry x="260" y="507.5" width="215" height="70" as="geometry" />
        </mxCell>
        <mxCell id="ANSA-z6g4CT9nZwf1jDd-57" value="" style="edgeStyle=orthogonalEdgeStyle;rounded=0;orthogonalLoop=1;jettySize=auto;html=1;" parent="3Fs6DEe1GGpeCKBilyt_-1" source="ANSA-z6g4CT9nZwf1jDd-18" target="ANSA-z6g4CT9nZwf1jDd-10" edge="1">
          <mxGeometry relative="1" as="geometry" />
        </mxCell>
        <mxCell id="ANSA-z6g4CT9nZwf1jDd-18" value="&lt;font style=&quot;font-size: 18px&quot;&gt;Print URL address&lt;/font&gt;" style="rounded=0;whiteSpace=wrap;html=1;" parent="3Fs6DEe1GGpeCKBilyt_-1" vertex="1">
          <mxGeometry x="297.5" y="627.5" width="140" height="52.5" as="geometry" />
        </mxCell>
        <mxCell id="ANSA-z6g4CT9nZwf1jDd-64" style="edgeStyle=orthogonalEdgeStyle;rounded=0;orthogonalLoop=1;jettySize=auto;html=1;" parent="3Fs6DEe1GGpeCKBilyt_-1" source="ANSA-z6g4CT9nZwf1jDd-20" edge="1">
          <mxGeometry relative="1" as="geometry">
            <mxPoint x="360" y="480" as="targetPoint" />
            <Array as="points">
              <mxPoint x="140" y="480" />
            </Array>
          </mxGeometry>
        </mxCell>
        <mxCell id="ANSA-z6g4CT9nZwf1jDd-20" value="&lt;font style=&quot;font-size: 18px&quot;&gt;Check RES&amp;nbsp;&lt;/font&gt;&lt;span style=&quot;font-size: 18px&quot;&gt;function&lt;/span&gt;" style="rounded=0;whiteSpace=wrap;html=1;" parent="3Fs6DEe1GGpeCKBilyt_-1" vertex="1">
          <mxGeometry x="80" y="518.75" width="120" height="47.5" as="geometry" />
        </mxCell>
        <mxCell id="ANSA-z6g4CT9nZwf1jDd-22" value="" style="endArrow=classic;html=1;exitX=0.5;exitY=1;exitDx=0;exitDy=0;" parent="3Fs6DEe1GGpeCKBilyt_-1" edge="1">
          <mxGeometry width="50" height="50" relative="1" as="geometry">
            <mxPoint x="601.5" y="360" as="sourcePoint" />
            <mxPoint x="601.5" y="400" as="targetPoint" />
          </mxGeometry>
        </mxCell>
        <mxCell id="ANSA-z6g4CT9nZwf1jDd-23" value="" style="endArrow=classic;html=1;exitX=0.5;exitY=1;exitDx=0;exitDy=0;entryX=0.5;entryY=0;entryDx=0;entryDy=0;" parent="3Fs6DEe1GGpeCKBilyt_-1" target="ANSA-z6g4CT9nZwf1jDd-14" edge="1">
          <mxGeometry width="50" height="50" relative="1" as="geometry">
            <mxPoint x="602" y="470" as="sourcePoint" />
            <mxPoint x="602" y="510" as="targetPoint" />
          </mxGeometry>
        </mxCell>
        <mxCell id="ANSA-z6g4CT9nZwf1jDd-27" value="&lt;span style=&quot;font-size: 18px&quot;&gt;F&lt;/span&gt;" style="text;html=1;strokeColor=none;fillColor=none;align=center;verticalAlign=middle;whiteSpace=wrap;rounded=0;" parent="3Fs6DEe1GGpeCKBilyt_-1" vertex="1">
          <mxGeometry x="452.5" y="410" width="40" height="20" as="geometry" />
        </mxCell>
        <mxCell id="ANSA-z6g4CT9nZwf1jDd-30" style="edgeStyle=orthogonalEdgeStyle;rounded=0;orthogonalLoop=1;jettySize=auto;html=1;entryX=0.5;entryY=0;entryDx=0;entryDy=0;" parent="3Fs6DEe1GGpeCKBilyt_-1" edge="1">
          <mxGeometry relative="1" as="geometry">
            <mxPoint x="367" y="577.5" as="sourcePoint" />
            <mxPoint x="367" y="625" as="targetPoint" />
          </mxGeometry>
        </mxCell>
        <mxCell id="ANSA-z6g4CT9nZwf1jDd-32" value="&lt;font style=&quot;font-size: 18px&quot;&gt;T&lt;/font&gt;" style="text;html=1;strokeColor=none;fillColor=none;align=center;verticalAlign=middle;whiteSpace=wrap;rounded=0;" parent="3Fs6DEe1GGpeCKBilyt_-1" vertex="1">
          <mxGeometry x="372.5" y="590" width="40" height="20" as="geometry" />
        </mxCell>
        <mxCell id="ANSA-z6g4CT9nZwf1jDd-34" value="&lt;font style=&quot;font-size: 18px&quot;&gt;F&lt;/font&gt;" style="text;html=1;strokeColor=none;fillColor=none;align=center;verticalAlign=middle;whiteSpace=wrap;rounded=0;" parent="3Fs6DEe1GGpeCKBilyt_-1" vertex="1">
          <mxGeometry x="220" y="507.5" width="40" height="20" as="geometry" />
        </mxCell>
        <mxCell id="ANSA-z6g4CT9nZwf1jDd-60" style="edgeStyle=orthogonalEdgeStyle;rounded=0;orthogonalLoop=1;jettySize=auto;html=1;" parent="3Fs6DEe1GGpeCKBilyt_-1" source="ANSA-z6g4CT9nZwf1jDd-36" edge="1">
          <mxGeometry relative="1" as="geometry">
            <mxPoint x="440" y="852.5" as="targetPoint" />
          </mxGeometry>
        </mxCell>
        <mxCell id="ANSA-z6g4CT9nZwf1jDd-36" value="&lt;font style=&quot;font-size: 18px&quot;&gt;Store images in buffer&lt;/font&gt;" style="rounded=0;whiteSpace=wrap;html=1;" parent="3Fs6DEe1GGpeCKBilyt_-1" vertex="1">
          <mxGeometry x="540" y="830" width="135" height="45" as="geometry" />
        </mxCell>
        <mxCell id="ANSA-z6g4CT9nZwf1jDd-50" value="" style="edgeStyle=orthogonalEdgeStyle;rounded=0;orthogonalLoop=1;jettySize=auto;html=1;" parent="3Fs6DEe1GGpeCKBilyt_-1" source="ANSA-z6g4CT9nZwf1jDd-42" target="ANSA-z6g4CT9nZwf1jDd-36" edge="1">
          <mxGeometry relative="1" as="geometry" />
        </mxCell>
        <mxCell id="ANSA-z6g4CT9nZwf1jDd-42" value="&lt;font style=&quot;font-size: 18px&quot;&gt;Images conversion function&lt;/font&gt;" style="rounded=0;whiteSpace=wrap;html=1;" parent="3Fs6DEe1GGpeCKBilyt_-1" vertex="1">
          <mxGeometry x="527.5" y="730" width="160" height="50" as="geometry" />
        </mxCell>
        <mxCell id="ANSA-z6g4CT9nZwf1jDd-44" style="edgeStyle=orthogonalEdgeStyle;rounded=0;orthogonalLoop=1;jettySize=auto;html=1;exitX=0.5;exitY=1;exitDx=0;exitDy=0;" parent="3Fs6DEe1GGpeCKBilyt_-1" source="ANSA-z6g4CT9nZwf1jDd-10" target="ANSA-z6g4CT9nZwf1jDd-10" edge="1">
          <mxGeometry relative="1" as="geometry" />
        </mxCell>
        <mxCell id="ANSA-z6g4CT9nZwf1jDd-59" value="&lt;font style=&quot;font-size: 18px&quot;&gt;Show video stream&lt;/font&gt;" style="rounded=0;whiteSpace=wrap;html=1;" parent="3Fs6DEe1GGpeCKBilyt_-1" vertex="1">
          <mxGeometry x="297.5" y="830" width="135" height="45" as="geometry" />
        </mxCell>
        <mxCell id="ANSA-z6g4CT9nZwf1jDd-62" value="" style="shape=flexArrow;endArrow=classic;html=1;" parent="3Fs6DEe1GGpeCKBilyt_-1" edge="1">
          <mxGeometry width="50" height="50" relative="1" as="geometry">
            <mxPoint x="364.5" y="690" as="sourcePoint" />
            <mxPoint x="365" y="820" as="targetPoint" />
          </mxGeometry>
        </mxCell>
        <mxCell id="ANSA-z6g4CT9nZwf1jDd-63" value="&lt;font style=&quot;font-size: 18px&quot;&gt;Enter URL in Web&lt;/font&gt;" style="text;html=1;strokeColor=none;fillColor=none;align=center;verticalAlign=middle;whiteSpace=wrap;rounded=0;" parent="3Fs6DEe1GGpeCKBilyt_-1" vertex="1">
          <mxGeometry x="190" y="740" width="172" height="20" as="geometry" />
        </mxCell>
      </root>
    </mxGraphModel>
  </diagram>
  <diagram id="2DA6T9uy-YNOM1P2Oq73" name="LabVIEW">
    <mxGraphModel dx="1038" dy="1717" grid="1" gridSize="10" guides="1" tooltips="1" connect="1" arrows="1" fold="1" page="1" pageScale="1" pageWidth="827" pageHeight="1169" math="0" shadow="0">
      <root>
        <mxCell id="In093FkzpAvZpDHZ425r-0" />
        <mxCell id="In093FkzpAvZpDHZ425r-1" parent="In093FkzpAvZpDHZ425r-0" />
        <mxCell id="Qt4l73ueCUPwEi164tzI-40" value="" style="rounded=0;whiteSpace=wrap;html=1;dashed=1;" vertex="1" parent="In093FkzpAvZpDHZ425r-1">
          <mxGeometry x="50" y="-40" width="740" height="1060" as="geometry" />
        </mxCell>
        <mxCell id="eYgoCSKAsLUO3uby3CH6-0" value="&lt;font style=&quot;font-size: 18px&quot;&gt;Start&lt;/font&gt;" style="rounded=1;whiteSpace=wrap;html=1;" vertex="1" parent="In093FkzpAvZpDHZ425r-1">
          <mxGeometry x="370" y="60" width="80" height="30" as="geometry" />
        </mxCell>
        <mxCell id="eYgoCSKAsLUO3uby3CH6-1" value="" style="endArrow=classic;html=1;exitX=0.5;exitY=1;exitDx=0;exitDy=0;" edge="1" parent="In093FkzpAvZpDHZ425r-1" source="eYgoCSKAsLUO3uby3CH6-0">
          <mxGeometry width="50" height="50" relative="1" as="geometry">
            <mxPoint x="409.5" y="100" as="sourcePoint" />
            <mxPoint x="410" y="130" as="targetPoint" />
          </mxGeometry>
        </mxCell>
        <mxCell id="eYgoCSKAsLUO3uby3CH6-2" value="&lt;span style=&quot;font-size: 18px&quot;&gt;Voice Recognition Module&lt;/span&gt;" style="rounded=0;whiteSpace=wrap;html=1;" vertex="1" parent="In093FkzpAvZpDHZ425r-1">
          <mxGeometry x="334" y="130" width="156" height="50" as="geometry" />
        </mxCell>
        <mxCell id="eYgoCSKAsLUO3uby3CH6-3" value="" style="endArrow=classic;html=1;exitX=0.5;exitY=1;exitDx=0;exitDy=0;" edge="1" parent="In093FkzpAvZpDHZ425r-1">
          <mxGeometry width="50" height="50" relative="1" as="geometry">
            <mxPoint x="410" y="180" as="sourcePoint" />
            <mxPoint x="410" y="220" as="targetPoint" />
          </mxGeometry>
        </mxCell>
        <mxCell id="eYgoCSKAsLUO3uby3CH6-13" value="" style="edgeStyle=orthogonalEdgeStyle;rounded=0;orthogonalLoop=1;jettySize=auto;html=1;" edge="1" parent="In093FkzpAvZpDHZ425r-1" source="eYgoCSKAsLUO3uby3CH6-4" target="eYgoCSKAsLUO3uby3CH6-12">
          <mxGeometry relative="1" as="geometry" />
        </mxCell>
        <mxCell id="eYgoCSKAsLUO3uby3CH6-4" value="&lt;span style=&quot;font-size: 18px&quot;&gt;Voice matched ?&lt;/span&gt;" style="rhombus;whiteSpace=wrap;html=1;" vertex="1" parent="In093FkzpAvZpDHZ425r-1">
          <mxGeometry x="320" y="220" width="180" height="80" as="geometry" />
        </mxCell>
        <mxCell id="eYgoCSKAsLUO3uby3CH6-5" value="" style="endArrow=classic;html=1;exitX=0.5;exitY=1;exitDx=0;exitDy=0;" edge="1" parent="In093FkzpAvZpDHZ425r-1">
          <mxGeometry width="50" height="50" relative="1" as="geometry">
            <mxPoint x="409.5" y="300" as="sourcePoint" />
            <mxPoint x="409.5" y="340" as="targetPoint" />
          </mxGeometry>
        </mxCell>
        <mxCell id="eYgoCSKAsLUO3uby3CH6-6" value="&lt;font style=&quot;font-size: 18px&quot;&gt;T&lt;/font&gt;" style="text;html=1;strokeColor=none;fillColor=none;align=center;verticalAlign=middle;whiteSpace=wrap;rounded=0;" vertex="1" parent="In093FkzpAvZpDHZ425r-1">
          <mxGeometry x="370" y="310" width="40" height="20" as="geometry" />
        </mxCell>
        <mxCell id="eYgoCSKAsLUO3uby3CH6-9" value="&lt;font style=&quot;font-size: 18px&quot;&gt;F&lt;/font&gt;" style="text;html=1;strokeColor=none;fillColor=none;align=center;verticalAlign=middle;whiteSpace=wrap;rounded=0;" vertex="1" parent="In093FkzpAvZpDHZ425r-1">
          <mxGeometry x="510" y="230" width="40" height="20" as="geometry" />
        </mxCell>
        <mxCell id="Qt4l73ueCUPwEi164tzI-5" style="edgeStyle=orthogonalEdgeStyle;rounded=0;orthogonalLoop=1;jettySize=auto;html=1;entryX=0.5;entryY=0;entryDx=0;entryDy=0;" edge="1" parent="In093FkzpAvZpDHZ425r-1" source="eYgoCSKAsLUO3uby3CH6-10" target="Qt4l73ueCUPwEi164tzI-1">
          <mxGeometry relative="1" as="geometry">
            <mxPoint x="410" y="410" as="targetPoint" />
          </mxGeometry>
        </mxCell>
        <mxCell id="Qt4l73ueCUPwEi164tzI-6" style="edgeStyle=orthogonalEdgeStyle;rounded=0;orthogonalLoop=1;jettySize=auto;html=1;" edge="1" parent="In093FkzpAvZpDHZ425r-1" source="eYgoCSKAsLUO3uby3CH6-10" target="Qt4l73ueCUPwEi164tzI-0">
          <mxGeometry relative="1" as="geometry" />
        </mxCell>
        <mxCell id="Qt4l73ueCUPwEi164tzI-7" style="edgeStyle=orthogonalEdgeStyle;rounded=0;orthogonalLoop=1;jettySize=auto;html=1;entryX=0.5;entryY=0;entryDx=0;entryDy=0;" edge="1" parent="In093FkzpAvZpDHZ425r-1" source="eYgoCSKAsLUO3uby3CH6-10" target="Qt4l73ueCUPwEi164tzI-2">
          <mxGeometry relative="1" as="geometry" />
        </mxCell>
        <mxCell id="eYgoCSKAsLUO3uby3CH6-10" value="&lt;span style=&quot;font-size: 18px&quot;&gt;Initialization&lt;/span&gt;" style="rounded=0;whiteSpace=wrap;html=1;" vertex="1" parent="In093FkzpAvZpDHZ425r-1">
          <mxGeometry x="340" y="340" width="140" height="40" as="geometry" />
        </mxCell>
        <mxCell id="eYgoCSKAsLUO3uby3CH6-12" value="&lt;span style=&quot;font-size: 18px&quot;&gt;&amp;nbsp;break&lt;/span&gt;" style="rounded=0;whiteSpace=wrap;html=1;" vertex="1" parent="In093FkzpAvZpDHZ425r-1">
          <mxGeometry x="570" y="240" width="80" height="40" as="geometry" />
        </mxCell>
        <mxCell id="Qt4l73ueCUPwEi164tzI-0" value="&lt;span style=&quot;font-size: 18px&quot;&gt;Movement Control Module&lt;/span&gt;" style="rounded=0;whiteSpace=wrap;html=1;" vertex="1" parent="In093FkzpAvZpDHZ425r-1">
          <mxGeometry x="110" y="430" width="140" height="50" as="geometry" />
        </mxCell>
        <mxCell id="Qt4l73ueCUPwEi164tzI-1" value="&lt;font style=&quot;font-size: 18px&quot;&gt;Sensors Control and Data Storage Module&lt;/font&gt;" style="rounded=0;whiteSpace=wrap;html=1;" vertex="1" parent="In093FkzpAvZpDHZ425r-1">
          <mxGeometry x="320" y="430" width="180" height="50" as="geometry" />
        </mxCell>
        <mxCell id="Qt4l73ueCUPwEi164tzI-2" value="&lt;span style=&quot;font-size: 18px&quot;&gt;Camera and Video Storage Module&lt;/span&gt;" style="rounded=0;whiteSpace=wrap;html=1;" vertex="1" parent="In093FkzpAvZpDHZ425r-1">
          <mxGeometry x="570" y="430" width="170" height="50" as="geometry" />
        </mxCell>
        <mxCell id="Qt4l73ueCUPwEi164tzI-12" style="edgeStyle=orthogonalEdgeStyle;rounded=0;orthogonalLoop=1;jettySize=auto;html=1;entryX=0.5;entryY=0;entryDx=0;entryDy=0;" edge="1" parent="In093FkzpAvZpDHZ425r-1" source="Qt4l73ueCUPwEi164tzI-8" target="Qt4l73ueCUPwEi164tzI-11">
          <mxGeometry relative="1" as="geometry" />
        </mxCell>
        <mxCell id="Qt4l73ueCUPwEi164tzI-8" value="&lt;span style=&quot;font-size: 18px&quot;&gt;Check keyboards&lt;/span&gt;" style="rounded=0;whiteSpace=wrap;html=1;" vertex="1" parent="In093FkzpAvZpDHZ425r-1">
          <mxGeometry x="110" y="585" width="140" height="50" as="geometry" />
        </mxCell>
        <mxCell id="Qt4l73ueCUPwEi164tzI-15" value="" style="edgeStyle=orthogonalEdgeStyle;rounded=0;orthogonalLoop=1;jettySize=auto;html=1;" edge="1" parent="In093FkzpAvZpDHZ425r-1" source="Qt4l73ueCUPwEi164tzI-11" target="Qt4l73ueCUPwEi164tzI-14">
          <mxGeometry relative="1" as="geometry" />
        </mxCell>
        <mxCell id="Qt4l73ueCUPwEi164tzI-11" value="&lt;span style=&quot;font-size: 18px&quot;&gt;Strings conversion&lt;/span&gt;" style="rounded=0;whiteSpace=wrap;html=1;" vertex="1" parent="In093FkzpAvZpDHZ425r-1">
          <mxGeometry x="110" y="685" width="140" height="50" as="geometry" />
        </mxCell>
        <mxCell id="Qt4l73ueCUPwEi164tzI-13" value="" style="shape=flexArrow;endArrow=classic;startArrow=classic;html=1;" edge="1" parent="In093FkzpAvZpDHZ425r-1">
          <mxGeometry width="50" height="50" relative="1" as="geometry">
            <mxPoint x="179.5" y="570" as="sourcePoint" />
            <mxPoint x="179.5" y="490" as="targetPoint" />
          </mxGeometry>
        </mxCell>
        <mxCell id="Qt4l73ueCUPwEi164tzI-31" value="" style="edgeStyle=orthogonalEdgeStyle;rounded=0;orthogonalLoop=1;jettySize=auto;html=1;" edge="1" parent="In093FkzpAvZpDHZ425r-1" source="Qt4l73ueCUPwEi164tzI-14" target="Qt4l73ueCUPwEi164tzI-30">
          <mxGeometry relative="1" as="geometry" />
        </mxCell>
        <mxCell id="Qt4l73ueCUPwEi164tzI-14" value="&lt;span style=&quot;font-size: 18px&quot;&gt;Write in serial port&lt;/span&gt;" style="rounded=0;whiteSpace=wrap;html=1;" vertex="1" parent="In093FkzpAvZpDHZ425r-1">
          <mxGeometry x="110" y="790" width="140" height="50" as="geometry" />
        </mxCell>
        <mxCell id="Qt4l73ueCUPwEi164tzI-16" value="" style="shape=flexArrow;endArrow=classic;startArrow=classic;html=1;" edge="1" parent="In093FkzpAvZpDHZ425r-1">
          <mxGeometry width="50" height="50" relative="1" as="geometry">
            <mxPoint x="414" y="570" as="sourcePoint" />
            <mxPoint x="414" y="490" as="targetPoint" />
          </mxGeometry>
        </mxCell>
        <mxCell id="Qt4l73ueCUPwEi164tzI-17" style="edgeStyle=orthogonalEdgeStyle;rounded=0;orthogonalLoop=1;jettySize=auto;html=1;entryX=0.5;entryY=0;entryDx=0;entryDy=0;" edge="1" parent="In093FkzpAvZpDHZ425r-1" source="Qt4l73ueCUPwEi164tzI-18" target="Qt4l73ueCUPwEi164tzI-20">
          <mxGeometry relative="1" as="geometry" />
        </mxCell>
        <mxCell id="Qt4l73ueCUPwEi164tzI-18" value="&lt;span style=&quot;font-size: 18px&quot;&gt;Write in serial port&lt;/span&gt;" style="rounded=0;whiteSpace=wrap;html=1;" vertex="1" parent="In093FkzpAvZpDHZ425r-1">
          <mxGeometry x="344" y="582.5" width="140" height="50" as="geometry" />
        </mxCell>
        <mxCell id="Qt4l73ueCUPwEi164tzI-19" value="" style="edgeStyle=orthogonalEdgeStyle;rounded=0;orthogonalLoop=1;jettySize=auto;html=1;" edge="1" parent="In093FkzpAvZpDHZ425r-1" source="Qt4l73ueCUPwEi164tzI-20" target="Qt4l73ueCUPwEi164tzI-21">
          <mxGeometry relative="1" as="geometry" />
        </mxCell>
        <mxCell id="Qt4l73ueCUPwEi164tzI-33" style="edgeStyle=orthogonalEdgeStyle;rounded=0;orthogonalLoop=1;jettySize=auto;html=1;entryX=1;entryY=0.75;entryDx=0;entryDy=0;" edge="1" parent="In093FkzpAvZpDHZ425r-1" source="Qt4l73ueCUPwEi164tzI-20" target="Qt4l73ueCUPwEi164tzI-14">
          <mxGeometry relative="1" as="geometry" />
        </mxCell>
        <mxCell id="Qt4l73ueCUPwEi164tzI-20" value="&lt;span style=&quot;font-size: 18px&quot;&gt;Read serial port&lt;/span&gt;" style="rounded=0;whiteSpace=wrap;html=1;" vertex="1" parent="In093FkzpAvZpDHZ425r-1">
          <mxGeometry x="344" y="682.5" width="140" height="50" as="geometry" />
        </mxCell>
        <mxCell id="Qt4l73ueCUPwEi164tzI-24" value="" style="edgeStyle=orthogonalEdgeStyle;rounded=0;orthogonalLoop=1;jettySize=auto;html=1;" edge="1" parent="In093FkzpAvZpDHZ425r-1" source="Qt4l73ueCUPwEi164tzI-21" target="Qt4l73ueCUPwEi164tzI-22">
          <mxGeometry relative="1" as="geometry" />
        </mxCell>
        <mxCell id="Qt4l73ueCUPwEi164tzI-21" value="&lt;span style=&quot;font-size: 18px&quot;&gt;Strings conversion&lt;/span&gt;" style="rounded=0;whiteSpace=wrap;html=1;" vertex="1" parent="In093FkzpAvZpDHZ425r-1">
          <mxGeometry x="344" y="787.5" width="140" height="50" as="geometry" />
        </mxCell>
        <mxCell id="Qt4l73ueCUPwEi164tzI-22" value="&lt;span style=&quot;font-size: 18px&quot;&gt;Display and storage&lt;/span&gt;" style="rounded=0;whiteSpace=wrap;html=1;" vertex="1" parent="In093FkzpAvZpDHZ425r-1">
          <mxGeometry x="344" y="890" width="140" height="50" as="geometry" />
        </mxCell>
        <mxCell id="Qt4l73ueCUPwEi164tzI-25" value="" style="shape=flexArrow;endArrow=classic;startArrow=classic;html=1;" edge="1" parent="In093FkzpAvZpDHZ425r-1">
          <mxGeometry width="50" height="50" relative="1" as="geometry">
            <mxPoint x="654.5" y="570" as="sourcePoint" />
            <mxPoint x="654.5" y="490" as="targetPoint" />
          </mxGeometry>
        </mxCell>
        <mxCell id="Qt4l73ueCUPwEi164tzI-27" value="&lt;font style=&quot;font-size: 19px&quot;&gt;Distance Check&lt;/font&gt;" style="text;html=1;strokeColor=none;fillColor=none;align=center;verticalAlign=middle;whiteSpace=wrap;rounded=0;" vertex="1" parent="In093FkzpAvZpDHZ425r-1">
          <mxGeometry x="220" y="750" width="140" height="20" as="geometry" />
        </mxCell>
        <mxCell id="Qt4l73ueCUPwEi164tzI-30" value="&lt;span style=&quot;font-size: 18px&quot;&gt;Display&lt;/span&gt;" style="rounded=0;whiteSpace=wrap;html=1;" vertex="1" parent="In093FkzpAvZpDHZ425r-1">
          <mxGeometry x="110" y="890" width="140" height="50" as="geometry" />
        </mxCell>
        <mxCell id="Qt4l73ueCUPwEi164tzI-35" value="" style="edgeStyle=orthogonalEdgeStyle;rounded=0;orthogonalLoop=1;jettySize=auto;html=1;" edge="1" parent="In093FkzpAvZpDHZ425r-1" source="Qt4l73ueCUPwEi164tzI-32" target="Qt4l73ueCUPwEi164tzI-34">
          <mxGeometry relative="1" as="geometry" />
        </mxCell>
        <mxCell id="Qt4l73ueCUPwEi164tzI-32" value="&lt;span style=&quot;font-size: 18px&quot;&gt;Chose video mode&lt;/span&gt;" style="rounded=0;whiteSpace=wrap;html=1;" vertex="1" parent="In093FkzpAvZpDHZ425r-1">
          <mxGeometry x="585" y="582.5" width="140" height="50" as="geometry" />
        </mxCell>
        <mxCell id="Qt4l73ueCUPwEi164tzI-37" value="" style="edgeStyle=orthogonalEdgeStyle;rounded=0;orthogonalLoop=1;jettySize=auto;html=1;" edge="1" parent="In093FkzpAvZpDHZ425r-1" source="Qt4l73ueCUPwEi164tzI-34" target="Qt4l73ueCUPwEi164tzI-36">
          <mxGeometry relative="1" as="geometry" />
        </mxCell>
        <mxCell id="Qt4l73ueCUPwEi164tzI-34" value="&lt;span style=&quot;font-size: 18px&quot;&gt;Acquire images&lt;/span&gt;" style="rounded=0;whiteSpace=wrap;html=1;" vertex="1" parent="In093FkzpAvZpDHZ425r-1">
          <mxGeometry x="585" y="685" width="140" height="50" as="geometry" />
        </mxCell>
        <mxCell id="Qt4l73ueCUPwEi164tzI-39" value="" style="edgeStyle=orthogonalEdgeStyle;rounded=0;orthogonalLoop=1;jettySize=auto;html=1;" edge="1" parent="In093FkzpAvZpDHZ425r-1" source="Qt4l73ueCUPwEi164tzI-36" target="Qt4l73ueCUPwEi164tzI-38">
          <mxGeometry relative="1" as="geometry" />
        </mxCell>
        <mxCell id="Qt4l73ueCUPwEi164tzI-36" value="&lt;span style=&quot;font-size: 18px&quot;&gt;Display video stream&lt;/span&gt;" style="rounded=0;whiteSpace=wrap;html=1;" vertex="1" parent="In093FkzpAvZpDHZ425r-1">
          <mxGeometry x="585" y="787.5" width="140" height="50" as="geometry" />
        </mxCell>
        <mxCell id="Qt4l73ueCUPwEi164tzI-38" value="&lt;span style=&quot;font-size: 18px&quot;&gt;Store video stream&lt;/span&gt;" style="rounded=0;whiteSpace=wrap;html=1;" vertex="1" parent="In093FkzpAvZpDHZ425r-1">
          <mxGeometry x="585" y="890" width="140" height="50" as="geometry" />
        </mxCell>
        <mxCell id="wFOO4U9unqKOZj48kGnq-0" value="&lt;font size=&quot;1&quot;&gt;&lt;b style=&quot;font-size: 26px&quot;&gt;Software Design of LabVIEW&lt;/b&gt;&lt;/font&gt;" style="text;html=1;strokeColor=none;fillColor=none;align=center;verticalAlign=middle;whiteSpace=wrap;rounded=0;dashed=1;" vertex="1" parent="In093FkzpAvZpDHZ425r-1">
          <mxGeometry x="200" y="-20" width="440" height="50" as="geometry" />
        </mxCell>
      </root>
    </mxGraphModel>
  </diagram>
</mxfile>
